<svg width="11" height="10" viewBox="0 0 11 10" fill="none" xmlns="http://www.w3.org/2000/svg">
<path d="M5.64634 9.85372C5.59986 9.80729 5.56298 9.75214 5.53781 9.69144C5.51265 9.63074 5.4997 9.56568 5.4997 9.49997C5.4997 9.43427 5.51265 9.3692 5.53781 9.3085C5.56298 9.2478 5.59986 9.19266 5.64634 9.14622L9.29322 5.49997L0.634899 5.49978C0.50229 5.49978 0.375113 5.4471 0.281345 5.35333C0.187577 5.25956 0.134899 5.13238 0.134899 4.99978C0.134899 4.86717 0.187577 4.73999 0.281345 4.64622C0.375113 4.55245 0.502291 4.49978 0.634899 4.49978L9.29322 4.49997L5.64634 0.853723C5.55252 0.759902 5.49982 0.632655 5.49982 0.499973C5.49982 0.367291 5.55252 0.240043 5.64634 0.146223C5.74016 0.0524023 5.86741 -0.000305399 6.00009 -0.000305394C6.13278 -0.00030539 6.26003 0.0524023 6.35385 0.146223L10.8538 4.64622C10.9003 4.69266 10.9372 4.7478 10.9624 4.8085C10.9875 4.8692 11.0005 4.93427 11.0005 4.99997C11.0005 5.06568 10.9875 5.13074 10.9624 5.19144C10.9372 5.25214 10.9003 5.30729 10.8538 5.35372L6.35384 9.85372C6.30741 9.90021 6.25226 9.93709 6.19156 9.96225C6.13087 9.98742 6.0658 10.0004 6.00009 10.0004C5.93439 10.0004 5.86932 9.98742 5.80862 9.96225C5.74793 9.93709 5.69278 9.90021 5.64634 9.85372Z" fill="#111111"/>
</svg>
