<svg viewBox="0 0 15 11" fill="currentColor" xmlns="http://www.w3.org/2000/svg">
<path d="M13.949 1.2614L4.94899 10.2614C4.92287 10.2875 4.89185 10.3083 4.85771 10.3224C4.82356 10.3366 4.78696 10.3439 4.75 10.3439C4.71304 10.3439 4.67645 10.3366 4.6423 10.3224C4.60816 10.3083 4.57714 10.2875 4.55102 10.2614L0.613519 6.3239C0.560745 6.27112 0.531097 6.19955 0.531097 6.12491C0.531097 6.05028 0.560746 5.9787 0.61352 5.92593C0.666293 5.87315 0.73787 5.84351 0.812504 5.84351C0.887137 5.84351 0.958714 5.87315 1.01149 5.92593L4.75 9.66444L13.551 0.863428C13.6038 0.810654 13.6754 0.781006 13.75 0.781006C13.8246 0.781006 13.8962 0.810654 13.949 0.863428C14.0018 0.916202 14.0314 0.987779 14.0314 1.06241C14.0314 1.13705 14.0018 1.20862 13.949 1.2614Z" fill="#111111"/>
</svg>
