<svg viewBox="0 0 17 15" fill="currentColor" xmlns="http://www.w3.org/2000/svg">
<path d="M8.16866 12.7112L8.08816 12.7929L7.9996 12.7112C4.1757 9.18801 1.6479 6.85831 1.6479 4.49591C1.6479 2.86104 2.85545 1.63488 4.46552 1.63488C5.70526 1.63488 6.91281 2.45232 7.33948 3.56403H8.83684C9.2635 2.45232 10.4711 1.63488 11.7108 1.63488C13.3209 1.63488 14.5284 2.86104 14.5284 4.49591C14.5284 6.85831 12.0006 9.18801 8.16866 12.7112ZM11.7108 0C10.31 0 8.96564 0.662125 8.08816 1.70027C7.21067 0.662125 5.86627 0 4.46552 0C1.98602 0 0.0378418 1.97003 0.0378418 4.49591C0.0378418 7.57766 2.77495 10.1035 6.92086 13.921L8.08816 15L9.25545 13.921C13.4014 10.1035 16.1385 7.57766 16.1385 4.49591C16.1385 1.97003 14.1903 0 11.7108 0Z" fill="#111111"/>
</svg>
