<svg width="43" height="35" viewBox="0 0 43 35" fill="none" xmlns="http://www.w3.org/2000/svg">
<path d="M42.9335 1.43702C42.913 1.08024 42.7645 0.743524 42.5161 0.490809C42.2677 0.238094 41.9367 0.0869733 41.586 0.0661376C32.3108 -0.480758 24.8634 2.38862 21.663 7.76278C19.5485 11.3158 19.552 15.6308 21.6343 19.7471C20.4491 21.1824 19.5829 22.8615 19.0951 24.6691L16.1796 21.6922C17.5809 18.7153 17.5271 15.6126 16.0004 13.0349C13.635 9.06257 8.1749 6.93332 1.39592 7.33803C1.04521 7.35886 0.714228 7.50998 0.465814 7.7627C0.217401 8.01541 0.0688519 8.35213 0.0483708 8.70891C-0.351236 15.6053 1.74356 21.1599 5.64824 23.5662C6.93677 24.3671 8.41745 24.791 9.92744 24.7913C11.3931 24.7729 12.8359 24.4197 14.1493 23.7577L18.6292 28.3151V33.5416C18.6292 33.9284 18.7802 34.2994 19.0491 34.5728C19.3179 34.8464 19.6825 35 20.0627 35C20.443 35 20.8076 34.8464 21.0764 34.5728C21.3453 34.2994 21.4963 33.9284 21.4963 33.5416V28.1656C21.4899 25.8455 22.266 23.5934 23.695 21.7852C25.5389 22.7655 27.5838 23.2901 29.6641 23.3165C31.6753 23.3231 33.6492 22.7641 35.3679 21.7013C40.6506 18.4491 43.4783 10.8728 42.9335 1.43702ZM7.12661 21.0724C4.37774 19.3788 2.82232 15.3701 2.85995 10.2074C7.93478 10.1637 11.8753 11.7515 13.54 14.5479C14.4091 16.0063 14.5507 17.7072 13.9808 19.4591L9.60668 15.0091C9.33564 14.7472 8.97474 14.6033 8.60092 14.6082C8.2271 14.613 7.86994 14.7663 7.60559 15.0352C7.34124 15.3041 7.19061 15.6675 7.18583 16.0478C7.18104 16.4281 7.32247 16.7952 7.57997 17.0709L11.9541 21.5208C10.2321 22.1006 8.56196 21.9565 7.12661 21.0724ZM33.8823 19.2093C31.4811 20.6877 28.6588 20.8008 25.7916 19.5739L35.4127 9.78447C35.6702 9.50875 35.8116 9.1416 35.8068 8.7613C35.802 8.38101 35.6514 8.01767 35.387 7.74874C35.1227 7.47981 34.7655 7.32658 34.3917 7.32171C34.0179 7.31684 33.657 7.46072 33.386 7.72268L23.7631 17.4993C22.5518 14.5826 22.6611 11.7095 24.1215 9.26857C26.6195 5.0757 32.5437 2.73863 40.1291 2.91911C40.3011 10.634 38.0074 16.6681 33.8823 19.2093Z" fill="black"/>
</svg>
