<svg viewBox="0 0 25 24" fill="currentColor" xmlns="http://www.w3.org/2000/svg">
<path d="M12.4975 12C10.856 12 9.45075 11.4125 8.28177 10.2375C7.1128 9.0625 6.52831 7.65 6.52831 6C6.52831 4.35 7.1128 2.9375 8.28177 1.7625C9.45075 0.5875 10.856 0 12.4975 0C14.1391 0 15.5443 0.5875 16.7133 1.7625C17.8823 2.9375 18.4668 4.35 18.4668 6C18.4668 7.65 17.8823 9.0625 16.7133 10.2375C15.5443 11.4125 14.1391 12 12.4975 12ZM0.559082 24V19.8C0.559082 18.95 0.776959 18.1685 1.21271 17.4555C1.64847 16.7425 2.22649 16.199 2.94677 15.825C4.48883 15.05 6.05575 14.4685 7.64754 14.0805C9.23934 13.6925 10.856 13.499 12.4975 13.5C14.1391 13.5 15.7557 13.694 17.3475 14.082C18.9393 14.47 20.5063 15.051 22.0483 15.825C22.7696 16.2 23.3481 16.744 23.7839 17.457C24.2196 18.17 24.437 18.951 24.436 19.8V24H0.559082ZM3.5437 21H21.4514V19.8C21.4514 19.525 21.3827 19.275 21.2455 19.05C21.1082 18.825 20.9281 18.65 20.7052 18.525C19.3622 17.85 18.0066 17.344 16.6387 17.007C15.2707 16.67 13.8904 16.501 12.4975 16.5C11.1047 16.5 9.72434 16.669 8.35639 17.007C6.98844 17.345 5.63293 17.851 4.28985 18.525C4.066 18.65 3.88544 18.825 3.74814 19.05C3.61085 19.275 3.5427 19.525 3.5437 19.8V21ZM12.4975 9C13.3183 9 14.0212 8.706 14.6062 8.118C15.1912 7.53 15.4832 6.824 15.4822 6C15.4822 5.175 15.1897 4.4685 14.6047 3.8805C14.0197 3.2925 13.3173 2.999 12.4975 3C11.6768 3 10.9739 3.294 10.3889 3.882C9.80393 4.47 9.51193 5.176 9.51293 6C9.51293 6.825 9.80542 7.5315 10.3904 8.1195C10.9754 8.7075 11.6778 9.001 12.4975 9Z" fill="#111111"/>
</svg>
