<svg viewBox="0 0 13 24" fill="currentColor" xmlns="http://www.w3.org/2000/svg">
<path d="M0.349351 21.9765C0.237756 22.091 0.150514 22.2257 0.0926061 22.3729C0.0346979 22.52 0.0072564 22.6769 0.0118508 22.8343C0.0164452 22.9918 0.0529848 23.1468 0.119382 23.2906C0.18578 23.4344 0.280736 23.5641 0.398828 23.6723C0.51692 23.7805 0.655837 23.8651 0.807645 23.9212C0.959454 23.9774 1.12118 24.004 1.28359 23.9995C1.44601 23.9951 1.60593 23.9596 1.75422 23.8953C1.90251 23.8309 2.03627 23.7388 2.14787 23.6243L12.6619 12.8307C12.879 12.608 13 12.3132 13 12.0067C13 11.7003 12.879 11.4055 12.6619 11.1828L2.14787 0.387959C2.03701 0.270955 1.90328 0.176472 1.75444 0.110002C1.6056 0.0435311 1.44463 0.00639749 1.28086 0.000756193C1.1171 -0.00488511 0.95381 0.0210801 0.800482 0.0771416C0.647155 0.133203 0.506844 0.218245 0.387701 0.327327C0.268557 0.436408 0.172956 0.567354 0.106451 0.712561C0.0399448 0.857768 0.00386021 1.01434 0.00029227 1.17318C-0.00327567 1.33203 0.0257445 1.48997 0.0856671 1.63785C0.14559 1.78573 0.23522 1.92059 0.349352 2.03459L10.0618 12.0067L0.349351 21.9765Z"/>
</svg>
