<svg viewBox="0 0 28 28" fill="curentColor" xmlns="http://www.w3.org/2000/svg">
<path d="M24.9928 27.5L15.5912 18.05C14.8451 18.65 13.987 19.125 13.017 19.475C12.047 19.825 11.0148 20 9.92046 20C7.20943 20 4.91526 19.056 3.03794 17.168C1.16061 15.28 0.221454 12.974 0.220459 10.25C0.220459 7.525 1.15962 5.219 3.03794 3.332C4.91625 1.445 7.21043 0.501 9.92046 0.5C12.6315 0.5 14.9257 1.444 16.803 3.332C18.6803 5.22 19.6195 7.526 19.6205 10.25C19.6205 11.35 19.4464 12.3875 19.0982 13.3625C18.7499 14.3375 18.2774 15.2 17.6805 15.95L27.082 25.4L24.9928 27.5ZM9.92046 17C11.7858 17 13.3717 16.3435 14.6779 15.0305C15.9842 13.7175 16.6368 12.124 16.6358 10.25C16.6358 8.375 15.9827 6.781 14.6764 5.468C13.3702 4.155 11.7848 3.499 9.92046 3.5C8.05507 3.5 6.46925 4.1565 5.16298 5.4695C3.85671 6.7825 3.20408 8.376 3.20507 10.25C3.20507 12.125 3.85821 13.719 5.16447 15.032C6.47074 16.345 8.05607 17.001 9.92046 17Z" fill="#111111"/>
</svg>
