<svg viewBox="0 0 27 26" fill="currentColor" xmlns="http://www.w3.org/2000/svg">
<path d="M23.8898 6.0893H19.5524C19.4258 4.51977 18.7162 3.05563 17.5645 1.9881C16.4129 0.920562 14.9037 0.32785 13.3371 0.32785C11.7705 0.32785 10.2613 0.920562 9.10964 1.9881C7.95801 3.05563 7.24833 4.51977 7.12176 6.0893H2.78434C2.14826 6.0893 1.53823 6.34328 1.08845 6.79538C0.638669 7.24748 0.385986 7.86065 0.385986 8.50001V22.9643C0.385986 23.6037 0.638669 24.2168 1.08845 24.6689C1.53823 25.121 2.14826 25.375 2.78434 25.375H23.8898C24.5259 25.375 25.1359 25.121 25.5857 24.6689C26.0355 24.2168 26.2882 23.6037 26.2882 22.9643V8.50001C26.2882 7.86065 26.0355 7.24748 25.5857 6.79538C25.1359 6.34328 24.5259 6.0893 23.8898 6.0893ZM13.3371 3.19644C14.1444 3.19652 14.9247 3.489 15.535 4.02029C16.1453 4.55158 16.5447 5.28611 16.66 6.0893H10.0142C10.1295 5.28611 10.5289 4.55158 11.1392 4.02029C11.7494 3.489 12.5297 3.19652 13.3371 3.19644ZM23.4102 22.4822H3.26401V8.98215H7.10137V10.4286C7.10137 10.8122 7.25298 11.1801 7.52285 11.4514C7.79271 11.7226 8.15873 11.875 8.54038 11.875C8.92203 11.875 9.28805 11.7226 9.55792 11.4514C9.82778 11.1801 9.97939 10.8122 9.97939 10.4286V8.98215H16.6948V10.4286C16.6948 10.8122 16.8464 11.1801 17.1163 11.4514C17.3861 11.7226 17.7521 11.875 18.1338 11.875C18.5154 11.875 18.8815 11.7226 19.1513 11.4514C19.4212 11.1801 19.5728 10.8122 19.5728 10.4286V8.98215H23.4102V22.4822Z" fill="currentColor"/>
</svg>
