<svg width="45" height="33" viewBox="0 0 45 33" fill="none" xmlns="http://www.w3.org/2000/svg">
<path d="M34.2499 29.2292C35.8753 29.2292 37.1874 27.9171 37.1874 26.2917C37.1874 24.6663 35.8753 23.3542 34.2499 23.3542C32.6245 23.3542 31.3124 24.6663 31.3124 26.2917C31.3124 27.9171 32.6245 29.2292 34.2499 29.2292ZM37.1874 11.6042H32.2916V16.5H41.0257L37.1874 11.6042ZM10.7499 29.2292C12.3753 29.2292 13.6874 27.9171 13.6874 26.2917C13.6874 24.6663 12.3753 23.3542 10.7499 23.3542C9.1245 23.3542 7.81242 24.6663 7.81242 26.2917C7.81242 27.9171 9.1245 29.2292 10.7499 29.2292ZM38.1666 8.66668L44.0416 16.5V26.2917H40.1249C40.1249 29.5425 37.5008 32.1667 34.2499 32.1667C30.9991 32.1667 28.3749 29.5425 28.3749 26.2917H16.6249C16.6249 29.5425 14.0008 32.1667 10.7499 32.1667C7.49908 32.1667 4.87492 29.5425 4.87492 26.2917H0.958252V4.75001C0.958252 2.57626 2.70117 0.833344 4.87492 0.833344H32.2916V8.66668H38.1666ZM4.87492 4.75001V22.375H6.36325C7.44033 21.1804 9.007 20.4167 10.7499 20.4167C12.4928 20.4167 14.0595 21.1804 15.1366 22.375H28.3749V4.75001H4.87492Z" fill="black"/>
</svg>
